<svg xmlns="http://www.w3.org/2000/svg" viewBox="0 0 32 32" fill="none">
  <defs>
    <linearGradient id="fav" x1="4" y1="4" x2="28" y2="28" gradientUnits="userSpaceOnUse">
      <stop stop-color="#1CD8D2"/>
      <stop offset="0.5" stop-color="#00bf8f"/>
      <stop offset="1" stop-color="#302b63"/>
    </linearGradient>
  </defs>
  <rect width="32" height="32" rx="8" fill="#070b12"/>
  <!-- H -->
  <rect x="7" y="9" width="2.4" height="14" rx="0.8" fill="url(#fav)"/>
  <rect x="13.6" y="9" width="2.4" height="14" rx="0.8" fill="url(#fav)"/>
  <rect x="7" y="14.8" width="9" height="2.2" rx="1" fill="url(#fav)"/>
  <!-- S -->
  <path d="M25 12C25 10 23.2 9 21 9C18.8 9 17 10.2 17 12C17 14 18.8 14.6 21 15.2C23.2 15.8 25 16.4 25 18.4C25 20.2 23.2 21.4 21 21.4C18.8 21.4 17 20.4 17 18.6"
    stroke="url(#fav)" stroke-width="2.2" stroke-linecap="round" fill="none"/>
</svg>
